HIERARCHY
ROOT Hips
{
	OFFSET -0.001795 -0.223333 0.028219
	CHANNELS 6 Xposition Yposition Zposition Zrotation Yrotation Xrotation 
	JOINT LeftUpLeg
	{
		OFFSET 0.069520 -0.091406 -0.006815
		CHANNELS 3 Zrotation Yrotation Xrotation
		JOINT LeftLeg
		{
			OFFSET 0.034277 -0.375199 -0.004496
			CHANNELS 3 Zrotation Yrotation Xrotation
			JOINT LeftFoot
			{
				OFFSET -0.013596 -0.397961 -0.043693
				CHANNELS 3 Zrotation Yrotation Xrotation
				JOINT LeftToe
				{
					OFFSET 0.026358 -0.055791 0.119288
					CHANNELS 3 Zrotation Yrotation Xrotation
					End Site
					{
						OFFSET 0.000000 0.000000 0.000000
					}
				}
			}
		}
	}
	JOINT RightUpLeg
	{
		OFFSET -0.067670 -0.090522 -0.004320
		CHANNELS 3 Zrotation Yrotation Xrotation
		JOINT RightLeg
		{
			OFFSET -0.038290 -0.382569 -0.008850
			CHANNELS 3 Zrotation Yrotation Xrotation
			JOINT RightFoot
			{
				OFFSET 0.015774 -0.398415 -0.042312
				CHANNELS 3 Zrotation Yrotation Xrotation
				JOINT RightToe
				{
					OFFSET -0.025372 -0.048144 0.123348
					CHANNELS 3 Zrotation Yrotation Xrotation
					End Site
					{
						OFFSET 0.000000 0.000000 0.000000
					}
				}
			}
		}
	}
	JOINT Spine
	{
		OFFSET -0.002533 0.108963 -0.026696
		CHANNELS 3 Zrotation Yrotation Xrotation
		JOINT Spine1
		{
			OFFSET 0.005487 0.135180 0.001092
			CHANNELS 3 Zrotation Yrotation Xrotation
			JOINT Spine2
			{
				OFFSET 0.001457 0.052922 0.025425
				CHANNELS 3 Zrotation Yrotation Xrotation
				JOINT Neck
				{
					OFFSET -0.002778 0.213870 -0.042857
					CHANNELS 3 Zrotation Yrotation Xrotation
					JOINT Head
					{
						OFFSET 0.005152 0.064970 0.051349
						CHANNELS 3 Zrotation Yrotation Xrotation
						End Site
						{
							OFFSET 0.000000 0.000000 0.000000
						}
					}
				}
				JOINT LeftShoulder
				{
					OFFSET 0.078845 0.121749 -0.034090
					CHANNELS 3 Zrotation Yrotation Xrotation
					JOINT LeftArm
					{
						OFFSET 0.090977 0.030469 -0.008868
						CHANNELS 3 Zrotation Yrotation Xrotation
						JOINT LeftForeArm
						{
							OFFSET 0.259612 -0.012772 -0.027456
							CHANNELS 3 Zrotation Yrotation Xrotation
							JOINT LeftHand
							{
								OFFSET 0.249234 0.008986 -0.001171
								CHANNELS 3 Zrotation Yrotation Xrotation
								End Site
								{
									OFFSET 0.000000 0.000000 0.000000
								}
							}
						}
					}
				}
				JOINT RightShoulder
				{
					OFFSET -0.081759 0.118833 -0.038615
					CHANNELS 3 Zrotation Yrotation Xrotation
					JOINT RightArm
					{
						OFFSET -0.096012 0.032551 -0.009143
						CHANNELS 3 Zrotation Yrotation Xrotation
						JOINT RightForeArm
						{
							OFFSET -0.253742 -0.013329 -0.021401
							CHANNELS 3 Zrotation Yrotation Xrotation
							JOINT RightHand
							{
								OFFSET -0.255298 0.007772 -0.005559
								CHANNELS 3 Zrotation Yrotation Xrotation
								End Site
								{
									OFFSET 0.000000 0.000000 0.000000
								}
							}
						}
					}
				}
			}
		}
	}
}
MOTION
Frames: 7
Frame Time: 0.050000
0.003806 0.875524 0.139803 -1.248058 -3.306501 0.149114 3.759131 -1.487419 -28.579799 -3.825202 1.217570 48.334730 5.586575 9.390962 -10.317266 0.000000 0.000000 0.000000 -0.713721 3.390378 -32.183973 3.151835 1.429223 55.930569 -5.979762 -13.686284 -6.562220 0.000000 0.000000 0.000000 4.648102 -1.519857 19.413737 -2.830998 1.293955 -5.822787 -5.132493 8.241686 7.338052 9.863761 -2.139517 -26.994459 0.000000 0.000000 0.000000 -18.438836 -15.346795 4.391732 -49.700836 -8.015423 -2.409212 -8.435361 -20.895842 2.087094 0.000000 0.000000 0.000000 19.294792 6.025026 3.645177 55.223542 6.811798 -2.948098 7.304557 24.504305 2.618037 0.000000 0.000000 0.000000 
0.004423 0.909189 0.135192 -1.130533 -2.744742 0.980585 3.242182 -1.393424 -23.426721 -2.912921 0.436946 38.324435 4.756011 7.967292 -8.014590 0.000000 0.000000 0.000000 -0.490036 2.741556 -26.531399 1.599082 1.686934 45.331291 -4.957560 -10.915114 -5.800470 0.000000 0.000000 0.000000 4.977227 -1.368148 16.218400 -2.662735 1.234024 -4.918024 -4.956634 7.794523 7.023963 9.083123 -1.923983 -25.940629 0.000000 0.000000 0.000000 -18.421177 -13.808159 3.635918 -49.917869 -8.478487 -2.217911 -8.781790 -20.831153 2.142499 0.000000 0.000000 0.000000 18.717792 4.546496 2.709145 55.139270 6.523167 -2.967692 8.881548 24.677175 2.968490 0.000000 0.000000 0.000000 
0.004716 0.934383 0.132278 -1.194457 -3.224821 1.556646 2.989152 -1.155155 -18.510264 -2.532908 0.264614 29.180350 4.011382 7.361390 -4.220880 0.000000 0.000000 0.000000 -0.007101 2.343355 -22.084883 0.796582 1.684327 36.941966 -4.170650 -9.669560 -2.683788 0.000000 0.000000 0.000000 5.169310 -1.138532 12.941621 -2.590492 1.195408 -4.710610 -4.556780 7.278566 7.674926 8.621272 -1.888165 -25.434468 0.000000 0.000000 0.000000 -18.055713 -12.602519 3.294264 -50.726955 -8.549561 -2.368553 -8.914477 -20.893221 2.205219 0.000000 0.000000 0.000000 18.297852 4.042433 2.210167 56.544852 6.266597 -3.112650 8.614181 24.555163 2.885497 0.000000 0.000000 0.000000 
0.005031 0.949726 0.130369 -1.009706 -3.572901 1.879982 3.043314 -0.931668 -14.745667 -2.738704 0.318472 22.120064 3.628859 7.306529 -1.425603 0.000000 0.000000 0.000000 0.233974 1.896322 -17.831583 -0.385398 1.702947 29.217582 -3.447049 -8.153187 -1.499126 0.000000 0.000000 0.000000 5.083698 -0.898416 10.028941 -2.239976 1.040615 -4.437459 -4.143235 6.917325 7.815478 7.924637 -1.862614 -23.786546 0.000000 0.000000 0.000000 -18.390262 -11.567242 2.923659 -51.145592 -8.639970 -2.402302 -8.172983 -20.384443 2.046167 0.000000 0.000000 0.000000 18.921931 3.630850 1.830875 55.816079 6.053684 -3.206897 8.921998 23.969348 2.837081 0.000000 0.000000 0.000000 
0.005243 0.958058 0.129389 -0.970728 -3.954868 2.266253 2.374479 -0.830931 -11.892226 -1.441525 -0.046085 16.989707 3.250200 7.053601 0.620413 0.000000 0.000000 0.000000 0.345969 1.586818 -14.976494 -0.842389 1.508313 23.833228 -2.889244 -7.386541 0.244838 0.000000 0.000000 0.000000 5.306690 -0.693205 7.206936 -2.452054 1.131023 -3.937234 -3.740557 6.356291 7.382135 7.579705 -2.094665 -21.672273 0.000000 0.000000 0.000000 -19.431634 -10.754057 2.661849 -51.128946 -8.622266 -2.386402 -8.069285 -20.482658 2.065432 0.000000 0.000000 0.000000 19.125185 2.846103 1.155407 55.892698 5.186858 -3.527112 10.017157 24.008786 3.027479 0.000000 0.000000 0.000000 
0.005452 0.962208 0.128738 -0.874410 -3.940795 2.793793 2.199458 -0.746454 -10.291756 -0.827076 -0.165152 13.397288 2.715341 6.211099 1.569870 0.000000 0.000000 0.000000 0.093907 1.284062 -12.464972 -1.330214 1.297140 18.901840 -2.116172 -5.711991 0.811545 0.000000 0.000000 0.000000 5.411922 -0.475247 4.416397 -2.319457 1.074054 -3.551361 -3.659472 5.963552 7.194017 7.038020 -2.073540 -20.105146 0.000000 0.000000 0.000000 -20.292023 -9.489572 2.043118 -50.753233 -8.355757 -2.468158 -8.653218 -20.470955 2.179236 0.000000 0.000000 0.000000 19.602757 2.312222 0.734432 55.611450 4.273601 -3.901172 10.378105 23.795304 3.046034 0.000000 0.000000 0.000000 
0.005469 0.963953 0.128226 -0.953478 -3.990465 2.725911 2.047444 -0.643913 -8.607222 -0.255694 -0.245656 10.757682 2.296707 5.627357 2.515895 0.000000 0.000000 0.000000 0.219160 1.113859 -10.824284 -1.597127 1.159961 15.985293 -1.773473 -5.267030 1.717594 0.000000 0.000000 0.000000 5.716830 -0.341212 2.750759 -2.667151 1.234570 -2.961062 -3.369704 5.948184 6.878435 6.687466 -2.036895 -19.028934 0.000000 0.000000 0.000000 -21.096871 -8.810329 1.627434 -50.236433 -7.625698 -2.695210 -9.234618 -21.650716 2.413626 0.000000 0.000000 0.000000 20.195436 1.407129 0.173025 55.204108 2.960234 -4.446637 11.447990 23.570144 3.215586 0.000000 0.000000 0.000000 
